<svg id="Capa_1" enable-background="new 0 0 512 512" height="512" viewBox="0 0 512 512" width="512" xmlns="http://www.w3.org/2000/svg"><g><g><path d="m512 256c0 141.387-114.613 256-256 256s-256-114.613-256-256 114.613-256 256-256 256 114.613 256 256zm0 0" fill="#25d4f2"/><path d="m512 256c0 26.051-3.891 51.191-11.129 74.871-5.031 16.469-11.672 32.231-19.75 47.109-8.25 15.2-18 29.461-29.051 42.61-.582.691-1.16 1.379-1.75 2.058-46.941 54.704-116.59 89.352-194.32 89.352s-147.379-34.648-194.309-89.352c-.589-.687-1.179-1.378-1.75-2.07-11.062-13.137-20.812-27.398-29.05-42.598-3.289-6.031-6.332-12.21-9.121-18.531-14-31.629-21.77-66.629-21.77-103.449 0-46.219 12.25-89.57 33.68-127 44.121 77.07 127.16 129 222.32 129s178.211-51.93 222.32-129c21.43 37.43 33.68 80.781 33.68 127zm0 0" fill="#2fb3ea"/><path d="m481.262 377.699c-7.16 13.223-15.434 25.742-24.723 37.43-8.437 10.633-17.719 20.57-27.719 29.723-45.539 41.699-106.211 67.148-172.82 67.148s-127.281-25.449-172.82-67.148c-10-9.153-19.282-19.09-27.719-29.723-9.289-11.688-17.563-24.207-24.723-37.43zm0 0" fill="#303a59"/></g><g><path d="m193.022 224.034v44.844l26.906 17.937 26.907-17.937v-44.844z" fill="#ffd185"/><path d="m193.022 224.034v44.844l13.254 17.937 13.254-17.937v-44.844z" fill="#ffe0ad"/><path d="m193.022 268.878h53.813v108.821h-53.813z" fill="#ffe8c2"/><path d="m193.022 268.878h27.106v108.821h-27.106z" fill="#fff4e3"/><path d="m265.171 224.034v44.844l26.906 17.937 26.907-17.937v-44.844z" fill="#ffb664"/><path d="m265.171 268.878h53.813v108.821h-53.813z" fill="#ffd185"/><path d="m337.32 224.034v44.844l26.907 17.937 26.906-17.937v-26.907z" fill="#ffb664"/><path d="m337.32 268.878h53.813v108.821h-53.813z" fill="#ffd185"/><path d="m120.873 241.971v26.907l26.907 17.937 26.906-17.937v-44.844z" fill="#ffd185"/><path d="m120.873 241.971v26.907l13.453 17.937 13.454-17.937v-44.844z" fill="#ffe0ad"/><path d="m120.873 268.878h53.813v108.821h-53.813z" fill="#ffe8c2"/><path d="m120.873 268.878h26.906v108.821h-26.906z" fill="#fff4e3"/><path d="m250.024 89.502h14.948v35.875h-14.948z" fill="#a8a297"/><path d="m247.034 89.502h8.969v35.875h-8.969z" fill="#c5bdb0"/><path d="m355.258 143.315h-99.255l-35.875 35.875h135.13z" fill="#ffd185"/><path d="m156.748 143.315h99.255v35.875h-99.255z" fill="#ffe8c2"/><path d="m156.748 143.315h31.69v35.875h-31.69z" fill="#fff4e3"/><path d="m292.476 134.346h80.719v17.938h-80.719z" fill="#ffb664"/><path d="m138.811 134.346h80.719v17.938h-80.719z" fill="#ffd185"/><path d="m138.811 134.346h49.627v17.938h-49.627z" fill="#ffe0ad"/><path d="m301.445 116.408h-45.442l-35.875 62.782h81.317z" fill="#ff9850"/><path d="m210.561 116.408h45.442v62.782h-45.442z" fill="#ffb664"/><path d="m210.561 116.408h22.721v62.782h-22.721z" fill="#ffc687"/><path d="m264.972 71.564c0 4.946-4.023 8.969-8.969 8.969l-5.979 8.969 5.979 8.969c14.836 0 26.906-12.07 26.906-26.906h-17.937z" fill="#a8a297"/><path d="m247.034 71.564h-17.938c0 14.837 12.07 26.906 26.906 26.906v-17.937c-4.944 0-8.968-4.023-8.968-8.969z" fill="#c5bdb0"/><path d="m391.133 179.19h-194.922l59.792 62.781h135.13z" fill="#ffd185"/><path d="m120.873 179.19h135.13v62.782h-135.13z" fill="#ffe8c2"/><path d="m120.873 179.19h67.565v62.782h-67.565z" fill="#fff4e3"/><path d="m409.071 170.221h-153.068l-11.958 8.969 11.958 8.969h153.068z" fill="#ffb664"/><path d="m102.936 170.221h153.067v17.938h-153.067z" fill="#ffd185"/><path d="m102.936 170.221h85.502v17.938h-85.502z" fill="#ffe0ad"/></g></g></svg>