<svg id="Capa_1" enable-background="new 0 0 512 512" height="512" viewBox="0 0 512 512" width="512" xmlns="http://www.w3.org/2000/svg"><g><g><g><g><g><circle cx="256" cy="256" fill="#b574f1" r="256"/></g></g></g></g><path d="m121.219 390.781 120.827 120.827c70.086 3.803 141.436-21.05 194.973-74.588s78.39-124.888 74.588-194.973l-120.826-120.828z" fill="#a160e4"/><path d="m277.7 277.7-156.481 113.081c-47.415-47.415-25.508-146.195 48.929-220.632s173.218-96.344 220.632-48.929z" fill="#ffe906"/><path d="m341.852 341.852c-74.437 74.437-173.218 96.344-220.632 48.929l269.561-269.561c47.414 47.414 25.508 146.194-48.929 220.632z" fill="#fc0"/><g><path d="m286.353 306.518-80.871-80.871c-9.448-9.448-9.448-24.767 0-34.215 9.448-9.448 24.767-9.448 34.215 0l80.871 80.871c9.448 9.448 9.448 24.767 0 34.215-9.448 9.449-24.767 9.449-34.215 0z" fill="#fc0"/><path d="m320.568 272.303-40.435-40.435-34.215 34.215 40.435 40.435c9.448 9.448 24.767 9.448 34.215 0 9.448-9.448 9.448-24.767 0-34.215z" fill="#ff9e00"/></g><g><path d="m329.255 235.33-52.585-52.585c-9.448-9.448-9.448-24.767 0-34.215 9.448-9.448 24.767-9.448 34.215 0l52.585 52.585c9.448 9.448 9.448 24.767 0 34.215-9.448 9.448-24.767 9.448-34.215 0z" fill="#fc0"/><path d="m363.47 201.115-26.292-26.292-34.215 34.215 26.292 26.292c9.448 9.448 24.767 9.448 34.215 0 9.448-9.448 9.448-24.767 0-34.215z" fill="#ff9e00"/></g><g><path d="m210.801 353.784-52.585-52.585c-9.448-9.448-9.448-24.767 0-34.215 9.448-9.448 24.767-9.448 34.215 0l52.585 52.585c9.448 9.448 9.448 24.767 0 34.215-9.448 9.448-24.767 9.448-34.215 0z" fill="#fc0"/><path d="m245.016 319.569-26.292-26.292-34.215 34.215 26.292 26.292c9.448 9.448 24.767 9.448 34.215 0 9.448-9.448 9.448-24.767 0-34.215z" fill="#ff9e00"/></g></g></svg>