<svg id="Capa_1" enable-background="new 0 0 512 512" height="512" viewBox="0 0 512 512" width="512" xmlns="http://www.w3.org/2000/svg"><g><g><g><g><g><g><g><circle cx="256" cy="256" fill="#ffce00" r="256"/></g></g></g></g></g></g><path d="m512 256c0-22.501-2.903-44.324-8.355-65.115l-76.93-76.93-341.43 284.09 105.6 105.6c20.791 5.452 42.614 8.355 65.115 8.355 141.385 0 256-114.615 256-256z" fill="#ffa300"/><g><path d="m118.357 161.711h275.285v53.43h-275.285z" fill="#b04617"/></g><g><path d="m256.12 161.71h137.522v53.43h-137.522z" fill="#963b11"/></g><g><path d="m118.357 211.249h275.285v53.43h-275.285z" fill="#963b11"/></g><g><path d="m256.12 211.249h137.522v53.43h-137.522z" fill="#83360b"/></g><g><path d="m118.357 260.788h275.285v53.43h-275.285z" fill="#b04617"/></g><g><path d="m256.12 260.788h137.522v53.43h-137.522z" fill="#963b11"/></g><g><path d="m118.357 310.327h275.285v53.43h-275.285z" fill="#963b11"/></g><g><path d="m256.12 310.327h137.522v53.43h-137.522z" fill="#83360b"/></g><g><g><path d="m376.465 380.015-288.283-213.68 45.805-32.556 288.667 213.966z" fill="#c45325"/></g></g><g><g><path d="m422.654 347.745-166.534-123.438v66.506l120.345 89.202z" fill="#b04617"/></g></g><g><g><path d="m275.212 229.285h249.574v53.43h-249.574z" fill="#e86e35" transform="matrix(0 1 -1 0 656 -144)"/></g><g><path d="m-12.787 229.285h249.574v53.43h-249.574z" fill="#f77f43" transform="matrix(0 1 -1 0 368 144)"/></g></g><g><path d="m85.285 344.615h198.866v53.43h-198.866z" fill="#e86e35"/></g><g><path d="m256.12 344.615h170.594v53.43h-170.594z" fill="#c45325"/></g><g><path d="m85.285 113.955h341.429v53.43h-341.429z" fill="#e86e35"/></g><g><path d="m256.12 113.955h170.594v53.43h-170.594z" fill="#c45325"/></g></g></svg>