<svg id="Capa_1" enable-background="new 0 0 512 512" height="512" viewBox="0 0 512 512" width="512" xmlns="http://www.w3.org/2000/svg"><g><g><g><g><circle cx="256" cy="256" fill="#ffdd40" r="256"/></g></g></g><g><g><g><g><path d="m33.784 200.056c-23.187-2.11-40.294 21.203-31.384 42.714 73.724 177.984 226.32 259.735 254.28 248.153 27.96-11.581 78.056-177.289 4.332-355.274-8.91-21.51-37.491-25.899-52.395-8.012-19.022 22.831-45.705 48.646-76.911 61.572s-68.327 13.54-97.922 10.847z" fill="#1e92d3"/></g></g></g><g><g><g><g><path d="m56.909 220.191-7.918-19.116c-5.233-.224-10.324-.575-15.207-1.02-23.187-2.11-40.294 21.204-31.384 42.714 73.724 177.984 226.32 259.735 254.28 248.153 6.152-2.548 13.375-12.564 20.115-28.525-56.902-23.109-162.384-103.382-219.886-242.206z" fill="#167cc1"/></g></g></g></g><g><g><g><path d="m101.962 271.575c11.406-4.724 19.375-14.236 22.55-25.242 1.246-4.321 7.271-4.655 9-.503.268.644.521 1.3.758 1.966 6.564 18.467-1.851 39.281-19.424 47.959-20.432 10.089-44.792.698-53.37-20.012-.018-.044-.037-.089-.055-.133-1.693-4.129 2.836-8.1 6.742-5.942 10.026 5.541 22.39 6.633 33.799 1.907z" fill="#0e62a8"/></g></g></g><g><g><g><path d="m210.98 226.419c11.406-4.724 19.375-14.236 22.55-25.242 1.246-4.321 7.271-4.655 9-.503.268.644.521 1.3.758 1.966 6.564 18.467-1.851 39.281-19.424 47.959-20.432 10.089-44.792.698-53.37-20.012-.018-.044-.037-.089-.055-.133-1.693-4.129 2.836-8.1 6.742-5.942 10.026 5.54 22.39 6.632 33.799 1.907z" fill="#0e62a8"/></g></g></g><g><g><g><path d="m213.815 387.437c-17.811 7.378-30.256 22.23-35.213 39.417-1.946 6.748-11.355 7.27-14.053.786-.419-1.006-.814-2.03-1.183-3.07-10.25-28.837 2.89-61.34 30.332-74.891 31.906-15.755 69.945-1.089 83.341 31.25.029.069.057.139.086.208 2.643 6.447-4.428 12.648-10.527 9.278-15.661-8.652-34.968-10.357-52.783-2.978z" fill="#0e62a8"/></g></g></g></g><g><g><g><g><path d="m303.383 31.132c-14.903-17.888-43.485-13.499-52.395 8.012-73.724 177.984-23.628 343.692 4.332 355.274 27.96 11.581 180.556-70.169 254.28-248.153 8.91-21.51-8.197-44.824-31.384-42.714-29.595 2.693-66.717 2.08-97.922-10.846s-57.888-38.742-76.911-61.573z" fill="#ff4155"/></g></g></g><g><g><g><g><path d="m305.497 61.722 7.918-19.116c-3.542-3.858-6.893-7.707-10.032-11.474-14.904-17.888-43.485-13.499-52.395 8.012-73.724 177.984-23.628 343.692 4.332 355.274 6.152 2.548 18.342.573 34.394-5.946-23.894-56.579-41.719-187.927 15.783-326.75z" fill="#e80054"/></g></g></g></g><g><g><g><path d="m296.862 139.951c11.406 4.724 19.375 14.236 22.55 25.242 1.246 4.321 7.271 4.655 9 .503.268-.644.521-1.3.758-1.966 6.564-18.467-1.851-39.281-19.424-47.959-20.432-10.089-44.792-.698-53.37 20.012-.018.044-.037.089-.055.133-1.693 4.129 2.836 8.1 6.742 5.942 10.027-5.54 22.391-6.632 33.799-1.907z" fill="#cc0053"/></g></g></g><g><g><g><path d="m405.88 185.108c11.406 4.724 19.375 14.236 22.55 25.242 1.246 4.321 7.271 4.655 9 .503.268-.644.521-1.3.758-1.966 6.564-18.467-1.851-39.281-19.424-47.959-20.432-10.089-44.792-.698-53.37 20.012-.018.044-.037.089-.055.133-1.693 4.129 2.836 8.1 6.742 5.942 10.027-5.541 22.391-6.633 33.799-1.907z" fill="#cc0053"/></g></g></g><g><g><g><path d="m304.678 275.257c-17.811-7.378-30.256-22.23-35.213-39.417-1.946-6.748-11.355-7.27-14.053-.786-.419 1.006-.814 2.03-1.183 3.07-10.25 28.837 2.89 61.34 30.332 74.891 31.906 15.755 69.945 1.089 83.341-31.25.029-.069.057-.139.086-.208 2.643-6.447-4.428-12.648-10.527-9.278-15.661 8.651-34.968 10.357-52.783 2.978z" fill="#cc0053"/></g></g></g></g></g></svg>