<svg id="Capa_1" enable-background="new 0 0 512 512" height="512" viewBox="0 0 512 512" width="512" xmlns="http://www.w3.org/2000/svg"><g><g><g><g><g><g><g><circle cx="256" cy="256" fill="#c38778" r="256"/></g></g></g></g></g></g><path d="m510.548 228.576-108.91-108.91-303.907 77.542 87.597 87.597-24.941 23.944 95.284 95.284-95.284 38.009 68.544 68.544c8.895.935 17.926 1.414 27.069 1.414 141.385 0 256-114.615 256-256 0-9.264-.492-18.414-1.452-27.424z" fill="#a65d4e"/><g><path d="m203.707 377.403-43.321 64.638h191.228l-43.321-64.638-52.293-19.701z" fill="#ffce00"/></g><g><path d="m308.293 377.403-52.293-19.701-.014.006v84.333h95.628z" fill="#fdba12"/></g><g><path d="m290.262 350.501v-38.196h-68.525v38.196l-18.03 26.902h104.586z" fill="#fdba12"/></g><g><path d="m290.263 350.501v-38.197h-34.277v65.099h52.307z" fill="#ffa300"/></g><g><path d="m286.505 328.921h-61.011c-63.586 0-115.132-51.547-115.132-115.132v-94.123h291.276v94.123c0 63.586-51.547 115.132-115.133 115.132z" fill="#ffce00"/></g><g><path d="m255.986 119.666v209.255h30.519c63.586 0 115.132-51.546 115.132-115.132v-94.123z" fill="#fdba12"/></g><g><path d="m97.731 150.47h316.538v46.737h-316.538z" fill="#fdba12"/></g><g><path d="m255.986 150.47h158.283v46.737h-158.283z" fill="#ffa300"/></g><g><circle cx="256" cy="173.013" fill="#ffa300" r="15.343"/></g><g><path d="m256 157.67c-.005 0-.009.001-.014.001v30.685c.005 0 .009.001.014.001 8.474 0 15.343-6.869 15.343-15.343s-6.869-15.344-15.343-15.344z" fill="#fe6a16"/></g><g><ellipse cx="256" cy="260.166" fill="#fdba12" rx="48.925" ry="48.925" transform="matrix(.16 -.987 .987 .16 -41.814 471.187)"/></g><g><path d="m256 211.241c-.005 0-.009 0 0 .006v97.849c-.009-.006-.005-.005 0-.005 27.021 0 48.925-21.905 48.925-48.925s-21.904-48.925-48.925-48.925z" fill="#ffa300"/></g><g><g><circle cx="354.195" cy="173.013" fill="#fe6a16" r="15.343"/></g><g><circle cx="157.805" cy="173.013" fill="#ffa300" r="15.343"/></g></g><g><g><path d="m246.622 231.806c0 7.562 3.664 14.301 9.378 18.666 5.714-4.365 9.378-11.104 9.378-18.666 0-7.561-3.664-14.3-9.378-18.665-5.714 4.365-9.378 11.104-9.378 18.665z" fill="#ffa300"/></g><g fill="#fe6a16"><path d="m255.995 250.47v-.003c-.002 0-.003 0 0 .003z"/><path d="m256 213.141c-.004-.014-.005.003 0 0z"/><path d="m256 213.141-.005 37.327c.001.001.003.002.005.004 5.714-4.365 9.378-11.104 9.378-18.666 0-7.561-3.664-14.3-9.378-18.665z"/></g><g><ellipse cx="256" cy="288.537" fill="#ffa300" rx="9.378" ry="18.666"/></g><g><path d="m265.378 288.537c0-7.562-3.664-14.3-9.378-18.666-.005.004-.009.008-.014.011l.014 37.32c-.001-.001-.002-.002 0 0s.001.001 0 0c5.714-4.365 9.378-11.103 9.378-18.665z" fill="#fe6a16"/><path d="m246.622 288.537c0 7.555 3.658 14.289 9.373 18.644v-37.308c-5.715 4.375-9.373 11.108-9.373 18.664z" fill="#ffa300"/></g></g><g><g><ellipse cx="284.365" cy="260.172" fill="#fe6a16" rx="18.666" ry="9.378"/></g><g><path d="m227.635 250.793c-7.562 0-14.3 3.664-18.666 9.378 4.365 5.714 11.104 9.378 18.666 9.378s14.3-3.664 18.665-9.378c-4.365-5.713-11.104-9.378-18.665-9.378z" fill="#ffa300"/></g></g><g><ellipse cx="256" cy="260.166" fill="#ffce00" rx="15.343" ry="15.343" transform="matrix(.16 -.987 .987 .16 -41.813 471.187)"/></g><g><path d="m256.009 244.823c-.005 0-.009.001-.014.001v30.685c.005 0 .009.001.014.001 8.474 0 15.343-6.869 15.343-15.343s-6.87-15.344-15.343-15.344z" fill="#fdba12"/></g></g></svg>