<?xml version="1.0" encoding="utf-8"?>
<!-- Generator: Adobe Illustrator 24.0.2, SVG Export Plug-In . SVG Version: 6.00 Build 0)  -->
<svg version="1.1" id="Capa_1" xmlns="http://www.w3.org/2000/svg" xmlns:xlink="http://www.w3.org/1999/xlink" x="0px" y="0px"
	 viewBox="0 0 512 512" style="enable-background:new 0 0 512 512;" xml:space="preserve">
<style type="text/css">
	.st0{fill:#E06A24;}
	.st1{fill:#C53D0E;}
	.st2{fill:#FFFFFF;}
	.st3{fill:#E9ECF4;}
	.st4{fill:#B1D3FD;}
	.st5{fill:#80AFFA;}
	.st6{fill:#E0B795;}
	.st7{fill:#D1A37D;}
	.st8{fill:#7982ED;}
</style>
<g>
	<g>
		<g>
			<g>
				<g>
					<g>
						<g>
							<circle class="st0" cx="256" cy="256" r="256"/>
						</g>
					</g>
				</g>
			</g>
		</g>
	</g>
	<path class="st1" d="M512,256c0-19.3-2.1-38.1-6.2-56.2l-87.6-87.6L93.8,399L200.8,506c17.8,3.9,36.2,6,55.2,6
		C397.4,512,512,397.4,512,256z"/>
	<g>
		<path class="st2" d="M93.8,145.1h324.5V399H93.8L93.8,145.1z"/>
	</g>
	<g>
		<path class="st3" d="M256,145.1h162.2V399H256V145.1z"/>
	</g>
	<g>
		<path class="st4" d="M93.8,112.3h324.5v40.1H93.8L93.8,112.3z"/>
	</g>
	<g>
		<path class="st5" d="M256,112.3h162.2v40.1H256V112.3z"/>
	</g>
	<g>
		<g>
			<path class="st6" d="M369.6,271c0-9.9-8-17.9-17.9-17.9c-0.3,0-0.6,0-0.9,0c-0.3,0-0.5,0-0.8,0h-63.8
				c-10.7,0-17.2-11.8-11.5-20.9l2-3.2l16.1-24.6c5.1-6.9,3.6-16.7-3.5-21.7c-6.8-4.7-16.2-2.9-21.2,3.7c0,0-36.5,37-53.2,55.1
				c-5.2,5.7-8.6,11.1-9.4,17.2c0,0,0,0,0,0c0,0-20.5,0-38.6,0c-10.7,0-19.4,8.7-19.4,19.4v51.5c0,10.7,8.7,19.4,19.4,19.4h40.4
				c0,0,0,0,0,0c6.5,11.5,18.3,19.6,32.1,20.8v0.2h28h54c0.2,0,0.5,0,0.7,0c0.3,0,0.6,0,0.9,0c9.9,0,17.9-8,17.9-17.9
				c0-2.8-0.7-5.5-1.8-7.9c7.8-1.9,13.7-9,13.7-17.4c0-3.7-1.1-7.1-3-9.9c7.1-2.4,12.3-9.1,12.3-17c0-4.6-1.7-8.8-4.6-12
				C364.6,285.5,369.6,278.9,369.6,271L369.6,271z"/>
		</g>
		<g>
			<path class="st7" d="M369.6,271c0-9.9-8-17.9-17.9-17.9c-0.3,0-0.6,0-0.9,0c-0.3,0-0.5,0-0.8,0h-63.8
				c-10.7,0-17.2-11.8-11.5-20.9l2-3.2l16.1-24.6c5.1-6.9,3.6-16.7-3.5-21.7c-6.8-4.7-16.2-2.9-21.2,3.7c0,0-5,5.1-12.1,12.3v171.4
				h11.6h54c0.2,0,0.5,0,0.7,0c0.3,0,0.6,0,0.9,0c9.9,0,17.9-8,17.9-17.9c0-2.8-0.7-5.5-1.8-7.9c7.8-1.9,13.7-9,13.7-17.4
				c0-3.7-1.1-7.1-3-9.9c7.1-2.4,12.3-9.1,12.3-17c0-4.6-1.7-8.8-4.6-12C364.6,285.5,369.6,278.9,369.6,271L369.6,271z"/>
		</g>
		<g>
			<path class="st8" d="M142.4,255h52.3v106.8h-52.3V255z"/>
		</g>
		<g>
			<circle class="st2" cx="168.5" cy="336" r="15.5"/>
		</g>
	</g>
	<g>
		<g>
			<circle class="st8" cx="116.2" cy="132.4" r="9.4"/>
		</g>
		<g>
			<circle class="st8" cx="173.5" cy="132.4" r="9.4"/>
		</g>
		<g>
			<circle class="st8" cx="144.9" cy="132.4" r="9.4"/>
		</g>
	</g>
</g>
</svg>
