<svg id="Layer_1" enable-background="new 0 0 140 140" height="512" viewBox="0 0 140 140" width="512" xmlns="http://www.w3.org/2000/svg" xmlns:x="http://ns.adobe.com/Extensibility/1.0/" xmlns:i="http://ns.adobe.com/AdobeIllustrator/10.0/" xmlns:graph="http://ns.adobe.com/Graphs/1.0/"><path d="m134 70c0 35.3500977-28.6499634 64-64 64-5.5199585 0-10.8899536-.7001953-16-2.0102539-27.5999756-7.1098633-48-32.1601563-48-61.9897461 0-35.340332 28.6500244-64 64-64 31.1800537 0 57.1500244 22.2998047 62.8400269 51.8100586.7600097 3.949707 1.1599731 8.0195312 1.1599731 12.1899414z" fill="#fb7833"/><path d="m134 70c0 35.3500977-28.6499634 64-64 64-5.5199585 0-10.8899536-.7001953-16-2.0102539l-18.7099609-18.7099609c-.3099976-.2197266-.4700317-.6000977-.4700317-.9902344v-50.9897461c-.3200074-.9199219-.5599976-1.8798828-.7199708-2.8701172l-13.2600097-13.2597656c4.2999878-9.9101562 19.4799805-6.4301758 19.4799805-6.4301758 3.0800171.5200195 0-2.9199219 0-2.9199219 2.0200195-.2998047 3.9000244-.4399414 5.6300049-.4399414 8 0 13.0300293 2.949707 16.1100464 6.1201172l.1099854.1098633 10.3200073 10.3100586c.25-1.0800781.5999756-2.1201172 1.039978-3.1098633-.0499878.0996094-.0999756.199707-.1500244.3095703 0 0 4.1199951-16.6396484 26.3000488-13.2998047l2.5199585 2.5302734c3.7700195-.4301758 10.8900146-.5400391 14.9800415 3.7998047l.1999512.2099609 15.460022 15.4501953c.7600096 3.9497071 1.159973 8.0195313 1.159973 12.1899415z" opacity=".1"/><path d="m77.8843765 68.1168365c-1.5349197 2.7774887-4.4925079 4.6644058-7.8841858 4.6644058s-6.3491173-1.8865967-7.8840294-4.664093c-.7998161.7270508-1.6681366 1.3795929-2.5913887 1.9513168 2.1432571 3.5550537 6.0304184 5.9454956 10.4754181 5.9454956 4.4449921 0 8.3323135-2.3904419 10.4755707-5.9454956-.9234085-.5720367-1.7917328-1.224266-2.5913849-1.9516296z" fill="#304551"/><path d="m67.8211288 55.779213c.6527557-.1572456 1.4787674-.2683258 2.1790619-.2683258.7003021 0 1.6747131.1109276 2.3274689.2681732.0012207-1.0723877.105751-2.1200943.2965164-3.1373215-.7528687-.1511536-1.8272324-.2514153-2.6239853-.2514153-.7966003 0-1.7227097.1004143-2.4755783.2515678.190773 1.0172273.2952957 2.0649339.2965164 3.1373216z" fill="#304551"/><path d="m35.2881699 113.2830734c-.3112068-.2241821-.4695892-.6056976-.4695892-.9892426v-56.4257087c0-.8162193.5873909-1.5599442 1.3995667-1.6411324.9339828-.0933647 1.7209969.6375771 1.7209969 1.5522232v56.3220596c-.0000002 1.2102357-1.377907 2.0988465-2.6509744 1.1818009z" fill="#fff"/><path d="m99.6799927 38.7373047c-3.0814209.5263672 0-2.9140625 0-2.9140625-22.1834107-3.3427734-26.2982178 13.2954101-26.2982178 13.2954101h.0004272c11.0812988-6.715332 21.3341675-7.3945312 30.678772-1.4560547 5.8991699-2.199707 15.0963135-2.4912109 15.0963135-2.4912109-4.2980957-9.9125976-19.4772949-6.434082-19.4772949-6.434082z" fill="#344d5b"/><path d="m89.0725021 38.7372513c-9.411972 0-17.0418091 7.629837-17.0418091 17.0418091s7.629837 17.0421143 17.0418091 17.0421143 17.0419617-7.6301422 17.0419617-17.0421143-7.6299896-17.0418091-17.0419617-17.0418091zm0 27.649292c-5.8583679 0-10.6074753-4.7491112-10.6074753-10.6074829s4.7491074-10.6074753 10.6074753-10.6074753 10.6074753 4.7491074 10.6074753 10.6074753-4.7491073 10.6074829-10.6074753 10.6074829z" fill="#293b44"/><path d="m40.3204956 35.8232422s3.0814209 3.4404297 0 2.9140625c0 0-15.1791992-3.4785156-19.4772949 6.434082 0 0 9.1971436.2915039 15.0963135 2.4912109 11.0144958-6.5688477 21.2170105-5.8710938 30.678772 1.4560547h.0004272s-4.1147461-16.6381835-26.2982178-13.2954101z" fill="#344d5b"/><g fill="#293b44"><path d="m33.8860245 55.7790604c0 9.411972 7.6299934 17.0421143 17.0419655 17.0421143s17.0418129-7.6301422 17.0418129-17.0421143-7.6298409-17.0418091-17.0418129-17.0418091-17.0419655 7.629837-17.0419655 17.0418091zm6.4344864 0c0-5.8583679 4.7491074-10.6074753 10.6074791-10.6074753s10.6074791 4.7491074 10.6074791 10.6074753-4.7491112 10.6074829-10.6074791 10.6074829-10.6074791-4.7491112-10.6074791-10.6074829z"/><path d="m94.3584137 86.4211121c-2.1136398.8298645-4.9317703 1.3623352-8.5564423.9315414-9.5428314-1.1272507-15.8055878-5.0258026-15.8055878-5.0258026s-6.2549248 3.8985519-15.79776 5.0258026c-3.6246719.4307938-6.4429893-.1016769-8.556633-.9315414-4.7362518-1.8474045-6.7793694-7.4840393-4.1882973-11.8600235.133213-.2190247.2194099-.3444061.2194099-.3444061 3.0765266-1.4403076 1.2289314 2.9746628 1.2289314 2.9746628s-2.4580498 8.720993 9.7542152 0c12.2124557-8.7206192 17.3401337-2.5675659 17.3401337-2.5675659s5.1353149-6.1530533 17.3477707 2.5675659c12.2124634 8.720993 9.7463837 0 9.7463837 0s-1.8474045-4.4149704 1.2369537-2.9746628c0 0 .0861969.1253815.219223.3444061 2.591263 4.3759842.5479509 10.012619-4.1883009 11.8600235z"/></g></svg>