<svg id="Capa_1" enable-background="new 0 0 512 512" height="512" viewBox="0 0 512 512" width="512" xmlns="http://www.w3.org/2000/svg"><g><g><path d="m512 256c0 141.387-114.613 256-256 256s-256-114.613-256-256 114.613-256 256-256 256 114.613 256 256zm0 0" fill="#ff9850"/><path d="m512 256c0 26.051-3.891 51.191-11.129 74.871-5.031 16.469-11.672 32.231-19.75 47.109-8.25 15.2-18 29.461-29.051 42.61-.582.691-1.16 1.379-1.75 2.058-46.941 54.704-116.59 89.352-194.32 89.352s-147.379-34.648-194.309-89.352c-.589-.687-1.179-1.378-1.75-2.07-11.062-13.137-20.812-27.398-29.05-42.598-3.289-6.031-6.332-12.21-9.121-18.531-14-31.629-21.77-66.629-21.77-103.449 0-46.219 12.25-89.57 33.68-127 44.121 77.07 127.16 129 222.32 129s178.211-51.93 222.32-129c21.43 37.43 33.68 80.781 33.68 127zm0 0" fill="#ff7a3c"/><path d="m481.262 377.699c-7.16 13.223-15.434 25.742-24.723 37.43-8.437 10.633-17.719 20.57-27.719 29.723-45.539 41.699-106.211 67.148-172.82 67.148s-127.281-25.449-172.82-67.148c-10-9.153-19.282-19.09-27.719-29.723-9.289-11.688-17.563-24.207-24.723-37.43zm0 0" fill="#303a59"/></g><g><path d="m307.988 342.239h-51.985l-11.82 17.73 11.82 17.73h27.186z" fill="#8c877f"/><path d="m204.018 342.239 24.799 35.46h27.186v-35.46z" fill="#a8a297"/><path d="m307.988 233.051h-51.985l-11.82 17.73 11.82 17.731h51.985z" fill="#8c877f"/><path d="m204.018 233.051h51.985v35.46h-51.985z" fill="#a8a297"/><path d="m157.897 75.106h17.73v44.325h-17.73z" fill="#c5bdb0"/><path d="m166.762 92.836c-14.665 0-26.595 11.931-26.595 26.595v35.46h53.19v-35.46c0-14.664-11.931-26.595-26.595-26.595z" fill="#e2d8c8"/><path d="m166.829 92.838c-.023 0-.045-.002-.068-.002-14.665 0-26.595 11.931-26.595 26.595v35.46h26.663z" fill="#f2e7d7"/><path d="m122.437 137.161h88.65v53.19h-88.65z" fill="#fff3e0"/><path d="m122.437 137.161h44.393v53.19h-44.393z" fill="#fff"/><path d="m187.447 377.699h41.37v-205.077h-41.37l-17.73 102.538z" fill="#c5bdb0"/><path d="m104.707 172.622v205.077h41.37l17.73-102.539-17.73-102.538z" fill="#fff3e0"/><path d="m146.077 172.622h41.37v205.077h-41.37z" fill="#e2d8c8"/><path d="m336.379 75.106h17.73v44.325h-17.73z" fill="#a8a297"/><path d="m345.244 92.836c-14.665 0-26.595 11.931-26.595 26.595v35.46h53.19v-35.46c0-14.664-11.93-26.595-26.595-26.595z" fill="#c5bdb0"/><path d="m300.919 137.161h88.65v53.19h-88.65z" fill="#e2d8c8"/><path d="m365.929 377.699h41.371v-205.077h-41.371l-17.73 102.538z" fill="#a8a297"/><path d="m283.189 172.622v205.077h41.37l17.73-102.539-17.73-102.538z" fill="#e2d8c8"/><path d="m324.559 172.622h41.37v205.077h-41.37z" fill="#c5bdb0"/></g></g></svg>