<?xml version="1.0" encoding="iso-8859-1"?>
<!-- Generator: Adobe Illustrator 19.0.0, SVG Export Plug-In . SVG Version: 6.00 Build 0)  -->
<svg version="1.1" id="Capa_1" xmlns="http://www.w3.org/2000/svg" xmlns:xlink="http://www.w3.org/1999/xlink" x="0px" y="0px"
	 viewBox="0 0 512 512" style="enable-background:new 0 0 512 512;" xml:space="preserve">
<circle style="fill:#E48C21;" cx="256" cy="256" r="256"/>
<path style="fill:#966117;" d="M293.581,509.247C417.147,491.067,512,384.617,512,256c0-3.336-0.084-6.652-0.211-9.958l-98.88-98.88
	l-10.979-5.492l-63.197-63.337L163.434,379.1L293.581,509.247z"/>
<path style="fill:#F1CB30;" d="M388.414,134.909c-15.429-7.717-28.173-19.671-36.855-34.57l-12.825-22.006H256l-13.891,158.895
	L256,433.667l0,0l15.197-5.546c39.013-14.238,72.927-39.37,98.078-72.679c28.546-37.803,43.634-82.823,43.634-130.194v-78.085
	L388.414,134.909z"/>
<path style="fill:#467BCA;" d="M313.263,122.658H256l-13.891,111.534L256,386.481l0,0c31.042-11.329,57.789-31.115,77.902-57.751
	c22.689-30.047,34.682-65.831,34.682-103.483v-50.696C345.538,163.024,326.259,144.958,313.263,122.658z"/>
<path style="fill:#F9EB97;" d="M172.451,78.333L159.488,99.54c-4.488,7.342-10.033,13.993-16.48,19.767
	c-5.874,5.261-12.406,9.705-19.415,13.209l-24.502,12.251v80.479c0,47.37,15.088,92.39,43.633,130.193
	c25.152,33.309,59.067,58.441,98.079,72.679L256,433.667V78.333H172.451z"/>
<path style="fill:#68B7EA;" d="M197.306,122.658c-6.708,10.974-15.021,20.974-24.728,29.668
	c-8.858,7.933-18.667,14.588-29.163,19.836v53.085c0,37.652,11.993,73.436,34.682,103.483
	c20.113,26.636,46.861,46.422,77.902,57.751V122.658H197.306z"/>
<path style="fill:#D6E6FD;" d="M334.264,244.603v-20.82h-23.856c-1.441-7.548-4.409-14.559-8.584-20.691l16.878-16.878
	l-14.722-14.722l-16.878,16.878c-6.132-4.175-13.144-7.143-20.692-8.585V155.93H256l-6.946,33.327L256,199.61
	c19.069,0,34.583,15.514,34.583,34.583S275.069,268.775,256,268.775l-6.946,11.14L256,312.456h10.41v-23.855
	c7.548-1.441,14.56-4.409,20.692-8.585l16.878,16.878l14.722-14.722l-16.878-16.878c4.175-6.132,7.143-13.143,8.584-20.691
	L334.264,244.603L334.264,244.603z"/>
<path style="fill:#F4F4FF;" d="M221.417,234.193c0-19.069,15.514-34.583,34.583-34.583v-43.681h-10.41v23.855
	c-7.548,1.441-14.56,4.409-20.692,8.584L208.02,171.49l-14.722,14.722l16.878,16.878c-4.175,6.132-7.143,13.144-8.585,20.692
	h-23.855v20.82h23.855c1.441,7.548,4.409,14.56,8.585,20.692l-16.878,16.878l14.722,14.722l16.878-16.878
	c6.132,4.175,13.144,7.143,20.692,8.584v23.855H256v-43.681C236.931,268.775,221.417,253.262,221.417,234.193z"/>
<g>
</g>
<g>
</g>
<g>
</g>
<g>
</g>
<g>
</g>
<g>
</g>
<g>
</g>
<g>
</g>
<g>
</g>
<g>
</g>
<g>
</g>
<g>
</g>
<g>
</g>
<g>
</g>
<g>
</g>
</svg>
